# xmcd CD database file
#
# Track frame offsets:
#	150
#	24634
#	42274
#	59140
#	82949
#	100721
#	120572
#	144009
#	162904
#	182740
#	210109
#	227949
#	248619
#
# Disc length: 3505 seconds
#
# Revision: 0
# Processed by: cddbd v1.5.2PL0 Copyright (c) Steve Scherf et al.
# Submitted via: NeoAudio 9.9.9
#
DISCID=9f0daf0d
DTITLE=Picante - Latin Salsa Hits - CD1
DYEAR=2011
DGENRE=Salsa
TTITLE0=Cali De Rumba - Fruko y Sus Tesos
TTITLE1=Dime Lo Que QUieres - Jayko y Su Komboloko
TTITLE2=Linda Cubana - Sonora Carruseles
TTITLE3=De Una Vez Gozando - Sonora Carruseles
TTITLE4=Un Beso Robado - Dad Boys
TTITLE5=Rumba Para Los Rumberos - Tony Canales
TTITLE6=En Barranquilla Me Quedo - Joe Arroyo y La Verdad
TTITLE7=Salsa Na'ma - David Cedeno
TTITLE8=El Vacan - The Latin Brothers
TTITLE9=Salsa Mundial - Gerardo Rosales
TTITLE10=Ni Tiguere Gallo Ni Pariguayo - Aris Martinez
TTITLE11=No Me Vuelvo A Enamorar - Los Titanes
TTITLE12=Amigo - Anthony G
EXTD=YEAR: 2011
EXTT0=
EXTT1=
EXTT2=
EXTT3=
EXTT4=
EXTT5=
EXTT6=
EXTT7=
EXTT8=
EXTT9=
EXTT10=
EXTT11=
EXTT12=
PLAYORDER=
